<?xml version="1.0" encoding="utf-8"?>
<!-- Generator: Adobe Illustrator 16.0.0, SVG Export Plug-In . SVG Version: 6.00 Build 0)  -->
<!DOCTYPE svg PUBLIC "-//W3C//DTD SVG 1.1//EN" "http://www.w3.org/Graphics/SVG/1.1/DTD/svg11.dtd">
<svg version="1.1" id="Layer_1" xmlns="http://www.w3.org/2000/svg" xmlns:xlink="http://www.w3.org/1999/xlink" x="0px" y="0px"
	 width="50.186px" height="40px" viewBox="0 0 50.186 40" enable-background="new 0 0 50.186 40" xml:space="preserve">
<g>
	<path fill="#CDE7EE" d="M3.709,14.832c-0.829,0-1.5-0.671-1.5-1.5V5.971C2.209,5.142,2.602,4,3.431,4h7.957
		c0.829,0,1.5,0.671,1.5,1.5S12.216,7,11.388,7H5.209v6.332C5.209,14.161,4.538,14.832,3.709,14.832z"/>
	<path fill="#CDE7EE" d="M46.709,14.832c-0.828,0-1.5-0.671-1.5-1.5V7H39.03c-0.828,0-1.5-0.671-1.5-1.5S38.202,4,39.03,4h7.957
		c0.828,0,1.222,1.142,1.222,1.971v7.361C48.209,14.161,47.537,14.832,46.709,14.832z"/>
	<path fill="#CDE7EE" d="M46.987,36H39.03c-0.828,0-1.5-0.672-1.5-1.5s0.672-1.5,1.5-1.5h6.179v-6.332c0-0.828,0.672-1.5,1.5-1.5
		s1.5,0.672,1.5,1.5v7.361C48.209,34.857,47.815,36,46.987,36z"/>
	<path fill="#CDE7EE" d="M11.388,36H3.431c-0.829,0-1.222-1.143-1.222-1.971v-7.361c0-0.828,0.671-1.5,1.5-1.5s1.5,0.672,1.5,1.5V33
		h6.179c0.829,0,1.5,0.672,1.5,1.5S12.216,36,11.388,36z"/>
</g>
</svg>
