<?xml version="1.0" encoding="utf-8"?>
<!-- Generator: Adobe Illustrator 24.1.3, SVG Export Plug-In . SVG Version: 6.00 Build 0)  -->
<svg version="1.1" id="Layer_1" xmlns="http://www.w3.org/2000/svg" xmlns:xlink="http://www.w3.org/1999/xlink" x="0px" y="0px"
	 viewBox="0 0 40 40" style="enable-background:new 0 0 40 40;" xml:space="preserve">
<style type="text/css">
	.st0{fill:#CBE6ED;}
</style>
<g>
	<path class="st0" d="M20,35.1c-7.4,0-13.4-6-13.4-13.4c0-7.4,6-13.4,13.4-13.4c0.6,0,1,0.4,1,1s-0.4,1-1,1
		c-6.3,0-11.4,5.1-11.4,11.4c0,6.3,5.1,11.4,11.4,11.4S31.4,28,31.4,21.7c0-2.3-0.7-4.5-2-6.4c-0.3-0.5-0.2-1.1,0.3-1.4
		c0.5-0.3,1.1-0.2,1.4,0.3c1.5,2.2,2.3,4.8,2.3,7.5C33.4,29.1,27.4,35.1,20,35.1z"/>
	<path class="st0" d="M16.1,14.6c-0.2,0-0.5-0.1-0.7-0.3c-0.4-0.4-0.4-1-0.1-1.4l3.2-3.5l-3.1-2.8c-0.4-0.4-0.4-1-0.1-1.4
		c0.4-0.4,1-0.4,1.4-0.1l3.9,3.5C20.9,8.8,21,9.1,21,9.3c0,0.3-0.1,0.5-0.3,0.7l-3.9,4.2C16.6,14.5,16.4,14.6,16.1,14.6z"/>
</g>
</svg>
