<?xml version="1.0" encoding="utf-8"?>
<!-- Generator: Adobe Illustrator 16.0.0, SVG Export Plug-In . SVG Version: 6.00 Build 0)  -->
<!DOCTYPE svg PUBLIC "-//W3C//DTD SVG 1.1//EN" "http://www.w3.org/Graphics/SVG/1.1/DTD/svg11.dtd">
<svg version="1.1" id="Layer_1" xmlns="http://www.w3.org/2000/svg" xmlns:xlink="http://www.w3.org/1999/xlink" x="0px" y="0px"
	 width="40px" height="40px" viewBox="0 0 40 40" enable-background="new 0 0 40 40" xml:space="preserve">
<g>
	<path fill="#CDE7EE" d="M22.292,4.587c-0.486-0.261-0.996-0.233-1.457,0.074L9.139,12.462c-0.957-0.073-4.19-0.161-6.327,1.746
		C1.626,15.266,1,16.768,1,18.551v3.446c-0.032,0.509-0.055,2.631,1.623,4.31c1.259,1.261,3.098,1.896,5.479,1.896
		c0.289,0,0.601-0.026,0.906-0.045l11.742,8.994c0.267,0.204,0.588,0.309,0.912,0.309c0.227,0,0.373-0.051,0.583-0.155
		C22.757,37.052,23,36.53,23,35.96V5.909C23,5.356,22.779,4.848,22.292,4.587z M4.768,24.209c-0.848-0.827-0.777-1.98-0.775-2.011
		C3.998,22.149,4,22.102,4,22.053v-3.501c0-0.928,0.263-1.615,0.804-2.101C5.627,15.711,6.986,15.487,8,15.445v9.752
		C6.533,25.181,5.424,24.849,4.768,24.209z M20,32.923l-9-7.028V14.833l9-6.122V32.923z"/>
	<path fill="#CDE7EE" d="M30.569,12.292c-0.828,0-1.5,0.671-1.5,1.5s0.672,1.5,1.5,1.5c3.111,0,5.643,2.531,5.643,5.642
		c0,3.111-2.531,5.643-5.643,5.643c-0.828,0-1.5,0.672-1.5,1.5s0.672,1.5,1.5,1.5c4.766,0,8.643-3.877,8.643-8.643
		C39.212,16.169,35.335,12.292,30.569,12.292z"/>
	<path fill="#CDE7EE" d="M32.25,20.935c0-2.776-2.259-5.035-5.035-5.035c-0.828,0-1.5,0.671-1.5,1.5s0.672,1.5,1.5,1.5
		c1.122,0,2.035,0.913,2.035,2.035s-0.913,2.035-2.035,2.035c-0.828,0-1.5,0.672-1.5,1.5s0.672,1.5,1.5,1.5
		C29.991,25.97,32.25,23.711,32.25,20.935z"/>
</g>
</svg>
