<?xml version="1.0" encoding="utf-8"?>
<!-- Generator: Adobe Illustrator 16.0.0, SVG Export Plug-In . SVG Version: 6.00 Build 0)  -->
<!DOCTYPE svg PUBLIC "-//W3C//DTD SVG 1.1//EN" "http://www.w3.org/Graphics/SVG/1.1/DTD/svg11.dtd">
<svg version="1.1" id="Layer_1" xmlns="http://www.w3.org/2000/svg" xmlns:xlink="http://www.w3.org/1999/xlink" x="0px" y="0px"
	 width="40px" height="40px" viewBox="0 0 40 40" enable-background="new 0 0 40 40" xml:space="preserve">
<path fill="#FFFFFF" d="M31.678,18.698h-19.94l5.103-6.059c0.533-0.634,0.452-1.58-0.182-2.114
	c-0.633-0.533-1.579-0.451-2.113,0.181l-7.213,8.565c-0.48,0.57-0.469,1.407,0.028,1.964l7.213,8.09
	c0.296,0.333,0.707,0.502,1.12,0.502c0.354,0,0.711-0.125,0.997-0.381c0.618-0.551,0.673-1.499,0.121-2.117l-5.021-5.632h19.887
	c0.828,0,1.5-0.672,1.5-1.5S32.506,18.698,31.678,18.698z"/>
</svg>
